<svg width="50" height="46" viewBox="0 0 50 46" fill="none" xmlns="http://www.w3.org/2000/svg">
    <rect y="6" width="50" height="40" rx="5" fill="#C4C4C4" />
    <rect x="5" y="14" width="4" height="4" rx="1" fill="white" />
    <rect x="5" y="20" width="4" height="4" rx="1" fill="white" />
    <rect x="5" y="26" width="4" height="4" rx="1" fill="white" />
    <rect x="5" y="32" width="4" height="4" rx="1" fill="white" />
    <rect x="5" y="38" width="4" height="4" rx="1" fill="white" />
    <rect x="11" y="14" width="4" height="4" rx="1" fill="white" />
    <rect x="11" y="20" width="4" height="4" rx="1" fill="white" />
    <rect x="11" y="26" width="4" height="4" rx="1" fill="white" />
    <rect x="11" y="32" width="4" height="4" rx="1" fill="white" />
    <rect x="11" y="38" width="4" height="4" rx="1" fill="white" />
    <rect x="17" y="14" width="4" height="4" rx="1" fill="white" />
    <rect x="17" y="20" width="4" height="4" rx="1" fill="white" />
    <rect x="17" y="26" width="4" height="4" rx="1" fill="white" />
    <rect x="17" y="32" width="4" height="4" rx="1" fill="white" />
    <rect x="17" y="38" width="4" height="4" rx="1" fill="white" />
    <rect x="23" y="14" width="4" height="4" rx="1" fill="white" />
    <rect x="23" y="20" width="4" height="4" rx="1" fill="white" />
    <rect x="23" y="26" width="4" height="4" rx="1" fill="white" />
    <rect x="23" y="32" width="4" height="4" rx="1" fill="white" />
    <rect x="29" y="14" width="4" height="4" rx="1" fill="white" />
    <rect x="29" y="20" width="4" height="4" rx="1" fill="white" />
    <rect x="29" y="26" width="4" height="4" rx="1" fill="white" />
    <rect x="29" y="32" width="4" height="4" rx="1" fill="white" />
    <rect x="35" y="14" width="4" height="4" rx="1" fill="white" />
    <rect x="35" y="20" width="4" height="4" rx="1" fill="white" />
    <rect x="35" y="26" width="4" height="4" rx="1" fill="white" />
    <rect x="35" y="32" width="4" height="4" rx="1" fill="white" />
    <rect x="41" y="14" width="4" height="4" rx="1" fill="white" />
    <rect x="41" y="20" width="4" height="4" rx="1" fill="white" />
    <rect x="41" y="26" width="4" height="4" rx="1" fill="white" />
    <rect x="41" y="32" width="4" height="4" rx="1" fill="white" />
    <path d="M0 8C0 5.23858 2.23858 3 5 3H45C47.7614 3 50 5.23858 50 8V12H0V8Z" fill="#36D3C6" />
    <g filter="url(#filter0_d)">
        <rect x="10" width="3" height="7" rx="1" fill="#AF4DFB" />
    </g>
    <g filter="url(#filter1_d)">
        <rect x="37" width="3" height="7" rx="1" fill="#AF4DFB" />
    </g>
    <defs>
        <filter id="filter0_d" x="9" y="0" width="5" height="9" filterUnits="userSpaceOnUse"
            color-interpolation-filters="sRGB">
            <feFlood flood-opacity="0" result="BackgroundImageFix" />
            <feColorMatrix in="SourceAlpha" type="matrix" values="0 0 0 0 0 0 0 0 0 0 0 0 0 0 0 0 0 0 127 0" />
            <feOffset dy="1" />
            <feGaussianBlur stdDeviation="0.5" />
            <feColorMatrix type="matrix" values="0 0 0 0 0 0 0 0 0 0 0 0 0 0 0 0 0 0 0.25 0" />
            <feBlend mode="normal" in2="BackgroundImageFix" result="effect1_dropShadow" />
            <feBlend mode="normal" in="SourceGraphic" in2="effect1_dropShadow" result="shape" />
        </filter>
        <filter id="filter1_d" x="36" y="0" width="5" height="9" filterUnits="userSpaceOnUse"
            color-interpolation-filters="sRGB">
            <feFlood flood-opacity="0" result="BackgroundImageFix" />
            <feColorMatrix in="SourceAlpha" type="matrix" values="0 0 0 0 0 0 0 0 0 0 0 0 0 0 0 0 0 0 127 0" />
            <feOffset dy="1" />
            <feGaussianBlur stdDeviation="0.5" />
            <feColorMatrix type="matrix" values="0 0 0 0 0 0 0 0 0 0 0 0 0 0 0 0 0 0 0.25 0" />
            <feBlend mode="normal" in2="BackgroundImageFix" result="effect1_dropShadow" />
            <feBlend mode="normal" in="SourceGraphic" in2="effect1_dropShadow" result="shape" />
        </filter>
    </defs>
</svg>