<svg width="50" height="40" viewBox="0 0 50 40" fill="none" xmlns="http://www.w3.org/2000/svg">
    <rect x="20" y="13.8271" width="10" height="24.6914" fill="#C4C4C4" />
    <rect width="50" height="24.6914" rx="5" fill="#C4C4C4" />
    <rect x="2.5" y="2.46912" width="45" height="19.7531" rx="5" fill="white" />
    <path
        d="M12.2427 6.01036C13.0634 5.99928 13.8783 6.14797 14.6408 6.44792C15.4033 6.74788 16.0985 7.19323 16.6867 7.75854C17.275 8.32386 17.7447 8.99807 18.0691 9.74269C18.3936 10.4873 18.5663 11.2877 18.5775 12.0983L12.3281 12.1826L12.2427 6.01036Z"
        fill="#AF4DFB" />
    <path
        d="M11.7496 6.51078C10.5135 6.52746 9.31028 6.90576 8.29195 7.59785C7.27363 8.28993 6.48596 9.26471 6.02855 10.3989C5.57115 11.5331 5.46456 12.7759 5.72226 13.9699C5.97995 15.1639 6.59037 16.2557 7.4763 17.1071C8.36224 17.9585 9.48391 18.5314 10.6995 18.7532C11.915 18.975 13.1699 18.8358 14.3054 18.3532C15.4408 17.8706 16.4059 17.0663 17.0786 16.0421C17.7512 15.0178 18.1012 13.8195 18.0844 12.5987L11.8349 12.683L11.7496 6.51078Z"
        fill="#36D3C6" />
    <rect x="21" y="6.91357" width="9" height="11.358" rx="2" fill="#6154F1" />
    <rect x="33" y="6.91357" width="9" height="11.358" rx="2" fill="#ED254A" />
    <rect x="10" y="37.5309" width="30" height="2.46914" fill="#C4C4C4" />
</svg>