<svg width="1415" height="1585" viewBox="0 0 1415 1585" fill="none" xmlns="http://www.w3.org/2000/svg">
    <path
        d="M666.13 1288.97C992.543 1317.18 1272.8 1155.71 1292.05 928.315C1296.88 871.402 1284.89 815.748 1259.09 763.853C1345.39 744.372 1408.75 690.364 1414.57 621.809C1422.49 528.138 1319.91 442.779 1185.46 431.161C1085.39 422.514 995.883 457.116 953.356 513.978C886.973 489.096 813.592 472.221 735.853 465.502C409.409 437.294 129.181 598.765 109.906 826.158C90.6618 1053.55 339.686 1260.76 666.13 1288.97"
        fill="#F2E8FF" />
    <path
        d="M1203.37 767.004C1203.37 767.004 1059.71 741.972 1052.31 749.428C1044.92 756.888 1070.03 823.17 1099.56 852.988C1129.06 882.805 1186.11 911.579 1186.11 911.579L1215.92 882.845C1215.92 882.845 1102.61 790.573 1114.95 790.573C1127.26 790.573 1211.28 785.437 1211.28 785.437L1203.37 767.004"
        fill="#E55151" />
    <path
        d="M324.018 959.139L347.48 1012.91C347.48 1012.91 389.508 1228.44 389.508 1250.07C389.508 1271.72 404.585 1535.32 404.585 1535.32L400.627 1554.56L401.408 1564.97C401.408 1564.97 429.167 1560.17 452.186 1564.97C475.18 1569.77 482.315 1564.97 482.315 1564.97L425.99 1540.93L437.109 1219.63L424.037 777.729L336.126 787.725L324.018 959.139"
        fill="#371D6E" />
    <path
        d="M265.002 795.542C265.002 794.281 264.645 791.194 264.009 786.718C319.73 785.509 331.674 784.994 388.872 791.014C386.121 845.577 387.981 881.515 387.981 881.515L279.696 1187.96C279.696 1187.96 174.748 1500.72 181.573 1523.08C188.373 1545.44 204.544 1585 204.544 1585L157.736 1575.54V1554.9L201.997 1155.01C201.997 1155.01 265.002 811.028 265.002 795.542Z"
        fill="#432793" />
    <path
        d="M1262.26 694.649C1245.6 709.622 1251.12 744.141 1245.88 783.225C1234.33 868.921 1322.72 870.872 1322.72 870.872L1328.43 853.554C1328.43 853.554 1297.82 841.208 1302.31 827.603C1302.31 827.603 1327.42 842.222 1351.06 840.561C1374.73 838.9 1381.45 810.253 1381.45 810.253C1381.45 810.253 1352.07 829.225 1331.46 817.492C1310.86 805.758 1313.76 787.499 1313.76 787.499C1313.76 787.499 1328.81 811.107 1346.77 812.331C1364.72 813.558 1371.41 802.073 1371.41 802.073C1371.41 802.073 1336.67 801.684 1333.04 781.771C1329.41 761.858 1317.39 732.158 1306.91 711.031C1296.44 689.903 1271.13 686.677 1262.26 694.649"
        fill="#4C1E48" />
    <path
        d="M1240.17 797.771C1240.17 797.771 1251.21 887.27 1234.76 913.878C1225.5 928.837 1210.4 930.854 1198.92 929.751C1190.31 928.931 1184.5 920.43 1186.1 911.578C1190.22 888.587 1197.08 844.549 1192.93 824.857C1187.21 797.578 1240.17 797.771 1240.17 797.771Z"
        fill="#FC7575" />
    <path
        d="M1240.17 797.768C1240.17 797.768 1241.18 805.924 1242.14 818.044C1234.74 834.177 1223.96 851.616 1208.86 869.737C1201.64 878.362 1195.32 884.831 1189.73 889.595C1193.11 866.874 1195.99 839.304 1192.95 824.855C1187.21 797.576 1240.17 797.768 1240.17 797.768Z"
        fill="#FD5E5A" />
    <path
        d="M1257.22 742.658C1254.57 733.486 1243.99 720.549 1230.21 712.112C1200.37 693.889 1163.37 716.671 1159.52 754.823C1159.15 758.295 1159.15 761.73 1159.58 764.982C1162.48 785.73 1147.46 797.478 1147.46 797.478C1147.46 797.478 1148.32 802.364 1153.23 803.641C1158.13 804.918 1157.6 807.381 1156.06 810.642C1154.55 813.903 1152.86 814.532 1154.15 817.005C1155.42 819.475 1160.29 820.291 1160.29 820.291C1160.29 820.291 1156.93 825.358 1158.31 828.005C1159.67 830.652 1161.64 830.409 1161.64 830.409C1161.64 830.409 1166.08 832.477 1165.22 835.763C1164.36 839.052 1166.42 842.727 1168.09 845.361C1170.43 849.058 1185.04 866.468 1221.39 831.652C1257.74 796.833 1263.26 763.419 1257.22 742.658"
        fill="#FC7575" />
    <path
        d="M1160.57 760.507C1160.57 760.507 1175.63 757.947 1185.46 773.64C1185.46 773.64 1172.96 762.739 1162.24 763.733L1160.57 760.507Z"
        fill="#422549" />
    <path
        d="M1165.05 774.271C1165.05 774.271 1164.56 779.532 1166.71 781.112C1168.86 782.696 1170.56 781.895 1170.56 781.895L1165.05 774.271"
        fill="#18287D" />
    <path
        d="M1177.78 774.821C1177.78 774.821 1168.29 774.09 1162.02 775.287C1155.72 776.481 1153.29 774.849 1153.29 774.849C1153.29 774.849 1160.32 774.73 1165.99 773.248C1171.69 771.766 1177.78 774.821 1177.78 774.821Z"
        fill="#0F1D5B" />
    <path
        d="M1171.62 815.145C1168.44 818.011 1164.41 819.819 1160.27 820.299C1164.5 820.277 1168.77 819.005 1172.59 816.194C1172.89 815.956 1172.98 815.497 1172.77 815.167C1172.53 814.839 1172.1 814.763 1171.77 815.001C1171.77 815.017 1171.74 815.032 1171.71 815.047L1171.62 815.145"
        fill="#0F1D5B" />
    <path
        d="M1226.15 689.746C1263.28 691.829 1269.75 724.98 1277.71 756.032C1285.7 787.077 1243.34 813.248 1241.33 808.681C1241.33 808.681 1228.07 771.207 1214.23 770.947C1200.35 770.691 1162.88 740.002 1162.88 740.002C1163.25 739.22 1166.35 729.275 1168.24 723.629C1169.66 719.324 1167.99 716.064 1171.55 712.285C1183.6 699.425 1204.04 688.504 1226.15 689.746"
        fill="#5C2C55" />
    <path
        d="M1229.25 751.529C1238.38 760.887 1254.35 785.457 1260.79 795.431C1262.61 798.218 1260.36 801.572 1257.8 803.708C1248.24 811.785 1242.26 810.817 1241.31 808.684C1241.31 808.684 1227.19 776.628 1215.87 768.513C1204.56 760.373 1171.45 746.13 1161.9 742.916C1158.2 741.68 1168.74 710.727 1171.54 712.29C1184.52 719.58 1212.45 734.29 1229.25 751.529"
        fill="#2ADCDF" />
    <path
        d="M1214.22 770.951C1214.22 770.951 1207.62 760.317 1222.1 756.066C1236.61 751.812 1237.25 776.509 1229.25 783.836C1221.27 791.164 1214.22 770.951 1214.22 770.951"
        fill="#FC7575" />
    <path
        d="M1218.88 772.306C1218.88 772.306 1214.46 760.362 1220.99 761.012C1227.55 761.662 1232.33 774.51 1227.61 777.324C1222.86 780.137 1218.88 772.306 1218.88 772.306"
        fill="#FD5E5A" />
    <path
        d="M647.179 833.206C647.179 833.206 639.754 807.267 666.803 801.123C693.823 794.979 894.64 967.836 918.545 984.29C942.449 1000.74 983.794 1093.28 919.476 1116.49C894.727 1125.41 823.45 1115.28 766.12 1024.58C745.039 991.231 647.179 833.206 647.179 833.206Z"
        fill="#42210B" />
    <path
        d="M655.665 818.21L647.2 833.197L637.058 1169.61C637.058 1169.61 599.735 1183.1 606.881 1190.32C614.027 1197.53 642.473 1185.61 651.46 1185.61C660.475 1185.61 665.916 1161.94 665.916 1161.94L685.485 1151.7L672.43 1127.22L717.696 877.662L655.665 818.21"
        fill="#42210B" />
    <path
        d="M275.955 220.205C275.212 202.512 247.044 192.427 233.963 215.475L238.026 218.603C249.174 200.71 270.529 205.315 275.955 220.205Z"
        fill="#5C2C55" />
    <path
        d="M255.225 808.393C248.599 761.257 218.901 529.276 212.971 496.984C212.481 494.276 198.972 449.822 201.525 447.244C204.077 444.666 248.625 396.749 329.704 405.967C370.307 410.577 408.875 411.124 408.875 411.124C408.875 411.124 439.966 471.332 439.966 530.682C439.966 564.25 437.362 695.084 432.541 791.023C387.993 826.752 311.503 819.669 255.225 808.393"
        fill="#8C88FA" />
    <path
        d="M279.67 409.155L293.083 315.023L332.666 337.911L353.733 407.573C353.733 407.573 355.249 490.451 279.67 409.155"
        fill="#FC7575" />
    <path
        d="M293.09 315.016L332.677 337.914L347.806 387.888C328.97 387.531 303.73 375.458 290.089 349.58C289.56 348.612 289.081 347.618 288.602 346.6L293.09 315.016Z"
        fill="#FD5E5A" />
    <path
        d="M334.795 211.603C334.795 211.603 368.018 225.802 368.018 253.74C368.018 281.703 381.211 351.367 368.018 364.693C354.825 378.02 310.036 370.445 290.081 336.165C270.101 301.911 273.406 230.861 279.685 224.519C285.963 218.176 322.466 199.149 334.795 211.603"
        fill="#FC7575" />
    <path
        d="M310.524 221.934V224.501C310.524 224.501 318.636 258.911 349.697 264.512C380.783 270.088 384.608 253.751 384.608 253.751C384.608 253.751 416.953 267.52 419.494 234.822C422.061 202.149 394.389 194.836 394.389 194.836C394.389 194.836 403.758 217.214 391.847 214.621C379.936 212.054 390.872 193.124 378.165 188.82C365.458 184.515 353.753 191.413 353.753 191.413C353.753 191.413 333.935 189.676 319.894 181.948C305.852 174.195 277.871 180.652 274.842 192.684C271.813 204.716 270.966 212.884 270.966 212.91C271.197 210.55 262.418 213.506 262.007 213.74C234.437 228.961 254.82 272.24 268.399 300.764C272.378 309.165 276.665 317.463 281.542 325.398C283.878 329.184 286.599 333.178 290.065 336.186C290.065 336.186 274.791 295.889 279.668 282.56C284.571 269.232 290.527 283.416 293.094 269.673C295.635 255.903 284.982 254.192 284.982 242.99C284.982 231.814 310.524 221.934 310.524 221.934"
        fill="#5C2C55" />
    <path
        d="M292.038 283.62C292.038 283.62 280.121 262.986 272.881 270.3C265.641 277.613 278.628 319.106 285.868 315.009C293.108 310.938 292.038 283.62 292.038 283.62Z"
        fill="#FC7575" />
    <path
        d="M368.344 328.057C368.344 328.057 355.091 337.17 336.82 333.382C336.82 333.382 346.906 345.08 354.534 345.105C362.136 345.131 368.344 328.057 368.344 328.057"
        fill="white" />
    <path
        d="M287.586 285.794C287.586 285.794 278.658 273.535 276.321 280.192C273.983 286.849 283.98 313.099 287.586 309.432C291.217 305.789 287.586 285.794 287.586 285.794Z"
        fill="#FD5E5A" />
    <path
        d="M357.551 297.029C361.22 304.493 361.549 306.972 362.562 313.849C361.524 313.977 360.132 314.386 352.566 314.999C355.248 314.079 357.931 313.184 360.638 312.417C359.626 307.381 350.921 286.114 347.809 283.839C351.478 285.423 355.83 293.425 357.551 297.029"
        fill="#2846A6" />
    <path
        d="M324.354 285.107C324.354 288.915 326.515 292.012 329.179 292.012C331.817 292.012 333.978 288.915 333.978 285.107C333.978 281.299 331.817 278.202 329.179 278.202C326.515 278.202 324.354 281.299 324.354 285.107Z"
        fill="#2846A6" />
    <path
        d="M358.733 285.103C358.733 288.917 360.862 292.015 363.523 292.015C366.184 292.015 368.338 288.917 368.338 285.103C368.338 281.289 366.184 278.192 363.523 278.192C360.862 278.192 358.733 281.289 358.733 285.103Z"
        fill="#2846A6" />
    <path
        d="M331.851 264.718C331.851 264.718 319.352 262.254 312.939 268.732C306.501 275.21 308.89 279.325 310.575 279.325C312.285 279.325 312.738 268.097 319.1 268.732C336.805 270.51 337.057 265.175 331.851 264.718Z"
        fill="#2846A6" />
    <path d="M647.238 1564.27H626.896V1116.49H647.238V1564.27Z" fill="#432C47" />
    <path d="M1231.72 1399.81H637.072V1379.24H1231.72V1399.81Z" fill="#432C47" />
    <path d="M1218.46 1553.1H1267.95V1378.85H1218.46V1553.1ZM1290.09 1575.43H1196.32V1356.51H1290.09V1575.43Z"
        fill="#432C47" />
    <path d="M705.974 1582.93H570.887V1564.9H705.974V1582.93Z" fill="#432C47" />
    <path d="M1272.53 1580.71H1137.42V1562.68H1272.53V1580.71Z" fill="#432C47" />
    <path d="M841.138 1081.68H624.217V1104.88H841.138V1081.68Z" fill="#432C47" />
    <path
        d="M801.048 1060.78L1355.63 1397.83C1368.42 1405.61 1372.55 1422.39 1364.86 1435.32C1357.14 1448.23 1340.54 1452.42 1327.75 1444.64C1327.38 1444.42 1326.97 1444.14 1326.62 1443.9L789.361 1079.35C784.353 1075.95 783.029 1069.12 786.4 1064.08C789.645 1059.19 796.103 1057.8 801.048 1060.78Z"
        fill="#FF95FE" />
    <path
        d="M865.474 1018.18C845.199 1038.67 843.014 1102.54 882.224 1112.09C882.224 1112.09 986.076 1081.69 986.134 1081.67C969.355 1045.24 967.199 1018.07 953.828 980.311C926.037 998.662 879.34 1004.18 865.474 1018.18"
        fill="#4F3554" />
    <path
        d="M948.873 1036.62C943.206 1011.78 795.199 904.876 714.119 852.992C633.01 801.114 579.886 779.241 573.144 808.685C560.095 865.662 630.307 1070.06 647.191 1127.39C664.105 1184.74 662.739 1206 658.699 1210.1C654.631 1214.19 629.174 1234.58 629.174 1234.58L675.584 1235.52C691.131 1228.02 689.533 1205.28 698.571 1184.05C707.958 1161.94 707.958 1161.94 707.958 1161.94L689.097 1143.78C689.097 1143.78 673.55 1000.93 661.838 970.898C650.126 940.857 622.838 868.689 638.502 884.523C690.463 937.012 766.835 1035.52 766.835 1035.52C766.835 1035.52 793.891 1081.28 821.586 1096.31C849.31 1111.32 974.737 1150.38 948.873 1036.62"
        fill="#4F3554" />
    <path
        d="M913.878 997.814C855.728 951.257 725.343 860.348 662.116 824.365C635.551 809.432 580.987 779.273 573.155 808.684C584.831 749.292 786.361 896.951 834.643 933.206C861.896 953.651 888.719 974.797 913.878 997.814Z"
        fill="#958698" />
    <path
        d="M674.437 1118.83C674.437 1144.09 654.159 1164.57 629.173 1164.57C604.159 1164.57 583.881 1144.09 583.881 1118.83C583.881 1093.58 604.159 1073.1 629.173 1073.1C654.159 1073.1 674.437 1093.58 674.437 1118.83Z"
        fill="url(#paint0_linear)" />
    <path
        d="M717.697 930.26C717.697 955.522 697.441 975.994 672.43 975.994C647.42 975.994 627.137 955.522 627.137 930.26C627.137 904.996 647.42 884.523 672.43 884.523C697.441 884.523 717.697 904.996 717.697 930.26Z"
        fill="url(#paint1_linear)" />
    <path
        d="M694.734 930.254C694.734 942.698 684.754 952.773 672.423 952.773C660.118 952.773 650.11 942.698 650.11 930.254C650.11 917.811 660.118 907.724 672.423 907.724C684.754 907.724 694.734 917.811 694.734 930.254Z"
        fill="#432C47" />
    <path
        d="M651.472 1118.83C651.472 1131.27 641.48 1141.36 629.16 1141.36C616.84 1141.36 606.875 1131.27 606.875 1118.83C606.875 1106.39 616.84 1096.31 629.16 1096.31C641.48 1096.31 651.472 1106.39 651.472 1118.83Z"
        fill="#432C47" />
    <path
        d="M347.306 609.739C347.306 609.739 313.699 606.275 302.278 609.739C290.832 613.203 269.075 638.747 269.075 638.747L264.032 659.834H321.187L329.961 638.518L347.306 609.739"
        fill="#FC7575" />
    <path
        d="M487.181 610.963L473.233 588.473C473.233 588.473 435.641 580.678 429.41 583.364C423.206 586.051 404.435 600.877 404.435 600.877C404.435 600.877 296.637 666.581 269.081 638.746C241.525 610.91 310.48 471.838 264.492 425.41C264.492 425.41 248.433 399.866 201.534 447.241C154.608 494.643 143.737 729.099 241.03 736.499C307.742 741.582 367.494 682.461 398.491 644.75C398.517 644.75 421.746 631.109 431.052 621.734C440.333 612.332 487.181 610.963 487.181 610.963"
        fill="#FD5E5A" />
    <path
        d="M408.866 411.117C408.866 411.117 456.989 436.325 485.958 547.359C514.901 658.368 482.442 727.628 425.37 699.797C378.9 677.16 324.006 634.618 324.006 634.618L347.307 609.755C347.307 609.755 390.917 627.17 423.717 619.88C432.429 617.946 436.837 603.5 438.175 582.984C441.875 526.393 418.076 429.831 408.866 411.117"
        fill="#FC7575" />
    <path
        d="M1096.48 924.779C1050.37 971.377 1012.5 962.392 973.815 962.392C961.573 962.392 949.239 964.974 935.586 959.957C937.365 1003.08 952.675 1072.59 971.146 1112.69C975.257 1111.72 1095.93 1056.42 1151.55 1017.99C1208.1 978.896 1238.9 938.757 1238.9 904.187C1238.9 869.615 1142.63 878.184 1096.48 924.779Z"
        fill="#36D3C6" />
    <path
        d="M1296.2 804.504C1297.32 803.796 1297.16 802.081 1295.92 801.657C1285.61 798.224 1248.92 786.535 1243.09 792.42C1236.29 799.278 1267.89 809.775 1270.84 809.775C1273.76 809.775 1277.73 805.574 1282.23 805.574C1286.05 805.574 1291.2 807.618 1296.2 804.504"
        fill="#FD5E5A" />
    <path
        d="M1255.58 794.671C1255.58 794.671 1301.67 808.994 1309.55 814.858C1314.09 818.262 1312.72 820.842 1306.71 819.102C1300.2 817.227 1273.92 804.911 1273.92 804.911L1255.58 794.671Z"
        fill="#FD5E5A" />
    <path
        d="M971.975 869.676C971.975 869.676 949.215 820.294 1237.84 790.793C1264.06 788.113 1293.67 810.598 1303.29 820.294C1312.88 829.994 1310.64 834.548 1301.95 825.782C1293.26 817.011 1276.54 815.054 1276.54 815.054C1276.54 817.577 1306.99 830.296 1306.99 836.809C1306.99 843.323 1270.6 820.294 1270.6 820.294C1270.6 820.294 1299.52 839.778 1294.07 839.778C1288.59 839.778 1267.45 824.153 1261.44 822.779C1189.71 806.339 1076.62 850.632 1088.55 862.653C1100.44 874.68 1203.09 900.87 1209.07 929.805C1215.05 958.725 1206.71 983.855 1160.28 974.841C1113.86 965.814 997.818 895.8 971.975 869.676"
        fill="#FF8888" />
    <path
        d="M1147.45 1096.3C1147.14 1095.62 1147.45 1094.84 1148.13 1094.56C1236.81 1055.71 1273.19 936.893 1277.09 923.332C1277.3 922.632 1278.02 922.229 1278.7 922.419C1279.41 922.607 1279.84 923.36 1279.62 924.085C1275.63 937.98 1238.89 1057.7 1149.18 1097C1148.5 1097.29 1147.73 1096.97 1147.45 1096.3"
        fill="#8C88FA" />
    <path
        d="M1244.84 1059.21C1244.31 1058.7 1244.31 1057.86 1244.84 1057.34C1301.31 999.413 1310.72 909.393 1311.74 897.501C1311.81 896.79 1312.4 896.236 1313.15 896.293C1313.86 896.331 1314.42 896.991 1314.36 897.731C1313.33 909.919 1303.77 1000.68 1246.71 1059.21C1246.21 1059.73 1245.34 1059.73 1244.84 1059.21"
        fill="#8C88FA" />
    <path
        d="M1313.74 676.955C1258.85 621.82 1219.41 608.454 1212.18 606.361C1211.52 606.169 1211.12 605.48 1211.27 604.79C1211.43 604.041 1212.18 603.585 1212.93 603.799C1220.62 606.046 1260.53 619.765 1315.58 675.06C1316.11 675.579 1316.11 676.436 1315.58 676.958C1315.08 677.477 1314.24 677.471 1313.74 676.955"
        fill="#8C88FA" />
    <path
        d="M1170.55 359.906C1170.55 384.698 1145.77 404.782 1115.2 404.782C1084.61 404.782 1059.82 384.698 1059.82 359.906C1059.82 335.114 1084.61 315.03 1115.2 315.03C1145.77 315.03 1170.55 335.114 1170.55 359.906Z"
        fill="#F2E8FF" />
    <path
        d="M1019.08 326.955C1019.08 345.148 1004.48 359.904 986.465 359.904C968.455 359.904 953.847 345.148 953.847 326.955C953.847 308.732 968.455 293.976 986.465 293.976C1004.48 293.976 1019.08 308.732 1019.08 326.955Z"
        fill="#F2E8FF" />
    <defs>
        <linearGradient id="paint0_linear" x1="5121.04" y1="-1420.26" x2="5306.12" y2="-1420.26"
            gradientUnits="userSpaceOnUse">
            <stop stop-color="#A9A5DE" />
            <stop offset="1" stop-color="#BDB9F2" />
        </linearGradient>
        <linearGradient id="paint1_linear" x1="5296.92" y1="-1857.91" x2="5483.8" y2="-1857.91"
            gradientUnits="userSpaceOnUse">
            <stop stop-color="#A9A5DE" />
            <stop offset="1" stop-color="#BDB9F2" />
        </linearGradient>
    </defs>
</svg>