<svg width="60" height="57" viewBox="0 0 60 57" fill="none" xmlns="http://www.w3.org/2000/svg">
    <ellipse cx="46.8794" cy="12.7728" rx="7.51915" ry="10.3788" transform="rotate(40.6407 46.8794 12.7728)"
        fill="white" />
    <path d="M22.8652 39.2112L15.3265 52.5083L10.8645 48.6784L22.8652 39.2112Z" fill="white" />
    <rect x="42.771" y="14.3269" width="2.26" height="44.4804" transform="rotate(40.6407 42.771 14.3269)"
        fill="white" />
    <rect y="11.2273" width="2.26269" height="22" rx="1.13134" transform="rotate(-44.7452 0 11.2273)" fill="white" />
    <rect x="4.82031" y="6.44922" width="2.26269" height="22" rx="1.13134" transform="rotate(-44.7452 4.82031 6.44922)"
        fill="white" />
    <rect x="21.0117" y="22.7849" width="2.26269" height="34" rx="1.13134" transform="rotate(-44.7452 21.0117 22.7849)"
        fill="white" />
    <rect width="2.94997" height="8.61742" rx="1.47498"
        transform="matrix(0.536994 0.843586 -0.914757 0.404005 21.4521 20.616)" fill="white" />
    <rect width="2.96878" height="9.04209" rx="1.48439"
        transform="matrix(0.812695 0.58269 0.479788 -0.877385 19.8896 21.6538)" fill="white" />
    <rect x="9.6416" y="1.6709" width="2.26269" height="22" rx="1.13134" transform="rotate(-44.7452 9.6416 1.6709)"
        fill="white" />
    <path d="M38.7099 39.0343L51.3569 47.6189L47.1816 51.7572L38.7099 39.0343Z" fill="white" />
</svg>