<svg width="25" height="25" viewBox="0 0 15 15" fill="none" xmlns="http://www.w3.org/2000/svg">
  <circle cx="7.5" cy="7.5" r="7.5" fill="#8B87F9" />
  <path fill-rule="evenodd" clip-rule="evenodd"
    d="M9 6.5C9 7.88071 7.88071 9 6.5 9C5.11929 9 4 7.88071 4 6.5C4 5.11929 5.11929 4 6.5 4C7.88071 4 9 5.11929 9 6.5ZM8.51956 9.35891C7.94897 9.76271 7.2522 10 6.5 10C4.567 10 3 8.433 3 6.5C3 4.567 4.567 3 6.5 3C8.433 3 10 4.567 10 6.5C10 7.32003 9.71799 8.0742 9.24566 8.6708L11.8047 11.2299L11.0976 11.937L8.51956 9.35891Z"
    fill="white" />
</svg>